<?xml version="1.0" encoding="UTF-8" standalone="no"?>
<svg
   id="Layer_1"
   version="1.1"
   viewBox="0 0 176.7738 134.3804"
   sodipodi:docname="EHRI_DE2.svg"
   width="176.7738"
   height="134.3804"
   xmlns:inkscape="http://www.inkscape.org/namespaces/inkscape"
   xmlns:sodipodi="http://sodipodi.sourceforge.net/DTD/sodipodi-0.dtd"
   xmlns="http://www.w3.org/2000/svg"
   xmlns:svg="http://www.w3.org/2000/svg">
  <sodipodi:namedview
     id="namedview1079"
     pagecolor="#ffffff"
     bordercolor="#000000"
     borderopacity="0.25"
     inkscape:showpageshadow="true"
     inkscape:pageopacity="0.0"
     inkscape:pagecheckerboard="false"
     inkscape:deskcolor="#d1d1d1"
     showgrid="false"
     showborder="true"
     borderlayer="true"
     shape-rendering="auto" />
  <!-- Generator: Adobe Illustrator 30.2.1, SVG Export Plug-In . SVG Version: 2.1.1 Build 1)  -->
  <defs
     id="defs1034">
    <style
       id="style1032">
      .st0 {
        stroke: #3e0655;
        stroke-width: 1.4173px;
      }

      .st0, .st1 {
        fill: none;
        stroke-miterlimit: 10;
      }

      .st2 {
        fill: #7e6b89;
      }

      .st3 {
        fill: #fff;
      }

      .st4 {
        fill: #472c56;
      }

      .st1 {
        stroke: #472c56;
      }
    </style>
  </defs>
  <line
     class="st0"
     x1="0"
     y1="0.70864999"
     x2="176.7738"
     y2="0.70864999"
     id="line1038" />
  <line
     class="st0"
     x1="0"
     y1="133.67175"
     x2="176.7738"
     y2="133.67175"
     id="line1040" />
  <path
     class="st4"
     d="m 122.0306,57.28265 -3.1543,-7.2842 -0.1719,-0.1152 h -1.2051 c -0.0957,0 -0.1426,0.0479 -0.1426,0.1436 v 7.1406 c 0,0.1348 -0.0391,0.2402 -0.1152,0.3164 -0.0761,0.0762 -0.1816,0.1143 -0.3145,0.1143 h -4.5312 c -0.1348,0 -0.2402,-0.0381 -0.3164,-0.1143 -0.0762,-0.0762 -0.1152,-0.1816 -0.1152,-0.3164 v -19.2148 c 0,-0.1338 0.0391,-0.2383 0.1152,-0.3154 0.0762,-0.0762 0.1816,-0.1143 0.3164,-0.1143 h 8.6895 c 1.2988,0 2.4414,0.2676 3.4277,0.8027 0.9844,0.5352 1.748,1.2861 2.293,2.251 0.5449,0.9658 0.8184,2.0791 0.8184,3.3418 0,1.2617 -0.3105,2.3652 -0.9316,3.3125 -0.623,0.9463 -1.4785,1.6396 -2.5684,2.0791 -0.0957,0.0381 -0.123,0.1055 -0.0859,0.2002 l 3.6426,7.5713 c 0.0391,0.1152 0.0586,0.1826 0.0586,0.2012 0,0.0957 -0.0391,0.1719 -0.1152,0.2295 -0.0761,0.0576 -0.1719,0.0859 -0.2871,0.0859 h -4.8184 c -0.248,0 -0.4121,-0.1045 -0.4883,-0.3154 z m -4.6738,-14.999 v 3.3555 c 0,0.0957 0.0469,0.1426 0.1426,0.1426 h 2.6973 c 0.6113,0 1.1074,-0.167 1.4902,-0.501 0.3828,-0.335 0.5742,-0.7695 0.5742,-1.3057 0,-0.5537 -0.1914,-0.999 -0.5742,-1.333 -0.3828,-0.335 -0.8789,-0.502 -1.4902,-0.502 h -2.6973 c -0.0957,0 -0.1426,0.0479 -0.1426,0.1436 z"
     id="path1042" />
  <path
     class="st4"
     d="m 137.4603,57.48385 c -0.0762,-0.0762 -0.1152,-0.1816 -0.1152,-0.3164 v -19.2148 c 0,-0.1338 0.0391,-0.2383 0.1152,-0.3154 0.0762,-0.0762 0.1816,-0.1143 0.3164,-0.1143 h 4.5312 c 0.1328,0 0.2383,0.0381 0.3145,0.1143 0.0762,0.0771 0.1152,0.1816 0.1152,0.3154 v 19.2148 c 0,0.1348 -0.0391,0.2402 -0.1152,0.3164 -0.0761,0.0762 -0.1816,0.1143 -0.3145,0.1143 h -4.5312 c -0.1348,0 -0.2402,-0.0381 -0.3164,-0.1143 z"
     id="path1044" />
  <path
     class="st4"
     d="m 48.462801,42.02485 c -0.0762,0.0771 -0.1816,0.1152 -0.3154,0.1152 h -8.5752 c -0.0957,0 -0.1436,0.0479 -0.1436,0.1436 v 2.6953 c 0,0.0957 0.0479,0.1436 0.1436,0.1436 h 5.3057 c 0.1338,0 0.2393,0.0381 0.3154,0.1143 0.0762,0.0771 0.1152,0.1826 0.1152,0.3164 v 3.7275 c 0,0.1348 -0.0391,0.2393 -0.1152,0.3154 -0.0762,0.0771 -0.1816,0.1152 -0.3154,0.1152 h -5.3057 c -0.0957,0 -0.1436,0.0479 -0.1436,0.1436 v 2.9824 c 0,0.0957 0.0479,0.1436 0.1436,0.1436 h 8.5752 c 0.1338,0 0.2393,0.0381 0.3154,0.1143 0.0762,0.0771 0.1152,0.1826 0.1152,0.3154 v 3.7568 c 0,0.1348 -0.0391,0.2402 -0.1152,0.3164 -0.0761,0.0762 -0.1816,0.1143 -0.3154,0.1143 h -13.6797 c -0.1338,0 -0.2393,-0.0381 -0.3154,-0.1143 -0.0771,-0.0762 -0.1152,-0.1816 -0.1152,-0.3164 v -19.2148 c 0,-0.1338 0.0381,-0.2383 0.1152,-0.3154 0.0762,-0.0762 0.1816,-0.1143 0.3154,-0.1143 h 13.6797 c 0.1338,0 0.2393,0.0381 0.3154,0.1143 0.0762,0.0771 0.1152,0.1816 0.1152,0.3154 v 3.7568 c 0,0.1338 -0.0391,0.2393 -0.1152,0.3154 z"
     id="path1046" />
  <path
     class="st2"
     d="m 80.472901,47.46225 21.634499,6.0357 v 22.6609 c 0,0.372 -0.1063,0.665 -0.3188,0.879 -0.2126,0.2111 -0.507,0.3188 -0.8776,0.3188 H 88.296201 c -0.372,0 -0.665,-0.1077 -0.8776,-0.3188 -0.214,-0.214 -0.3188,-0.507 -0.3188,-0.879 v -19.5591 c 0,-0.2672 -0.1336,-0.3993 -0.3993,-0.3993 h -12.4539 c -0.2671,0 -0.3993,0.1321 -0.3993,0.3993 v 19.5591 c 0,0.372 -0.1077,0.665 -0.3203,0.879 -0.2126,0.2111 -0.5056,0.3188 -0.8776,0.3188 h -12.6133 c -0.3734,0 -0.6664,-0.1077 -0.879,-0.3188 -0.2126,-0.214 -0.3188,-0.507 -0.3188,-0.879 v -22.6609 l 21.6345,-6.0357 z"
     id="path1048" />
  <path
     class="st1"
     d="m 80.472901,47.46225 21.634499,6.0357 v 22.6609 c 0,0.372 -0.1063,0.665 -0.3188,0.879 -0.2126,0.2111 -0.507,0.3188 -0.8776,0.3188 H 88.296201 c -0.372,0 -0.665,-0.1077 -0.8776,-0.3188 -0.214,-0.214 -0.3188,-0.507 -0.3188,-0.879 v -19.5591 c 0,-0.2672 -0.1336,-0.3993 -0.3993,-0.3993 h -12.4539 c -0.2671,0 -0.3993,0.1321 -0.3993,0.3993 v 19.5591 c 0,0.372 -0.1077,0.665 -0.3203,0.879 -0.2126,0.2111 -0.5056,0.3188 -0.8776,0.3188 h -12.6133 c -0.3734,0 -0.6664,-0.1077 -0.879,-0.3188 -0.2126,-0.214 -0.3188,-0.507 -0.3188,-0.879 v -22.6609 l 21.6345,-6.0357 z"
     id="path1050" />
  <path
     class="st4"
     d="m 101.7886,20.92295 c -0.2126,-0.2126 -0.5071,-0.3188 -0.8774,-0.3188 H 88.296501 c -0.3721,0 -0.665,0.1062 -0.8777,0.3188 -0.2139,0.2124 -0.3188,0.5054 -0.3188,0.8789 v 20.2773 c 0,0.2656 -0.1335,0.3992 -0.3992,0.3992 h -12.4539 c -0.2673,0 -0.3994,-0.1335 -0.3994,-0.3992 v -20.2773 c 0,-0.3735 -0.1077,-0.6665 -0.3203,-0.8789 -0.2124,-0.2126 -0.5054,-0.3188 -0.8774,-0.3188 h -12.6133 c -0.3735,0 -0.6665,0.1062 -0.8792,0.3188 -0.2126,0.2124 -0.3188,0.5054 -0.3188,0.8789 v 31.696 l 21.6345,-6.0356 21.634499,6.0356 v -31.696 c 0,-0.3735 -0.1062,-0.6665 -0.3188,-0.8789 z"
     id="path1052" />
  <path
     class="st1"
     d="m 101.7886,20.92295 c -0.2126,-0.2126 -0.5071,-0.3188 -0.8774,-0.3188 H 88.296501 c -0.3721,0 -0.665,0.1062 -0.8777,0.3188 -0.2139,0.2124 -0.3188,0.5054 -0.3188,0.8789 v 20.2773 c 0,0.2656 -0.1335,0.3992 -0.3992,0.3992 h -12.4539 c -0.2673,0 -0.3994,-0.1335 -0.3994,-0.3992 v -20.2773 c 0,-0.3735 -0.1077,-0.6665 -0.3203,-0.8789 -0.2124,-0.2126 -0.5054,-0.3188 -0.8774,-0.3188 h -12.6133 c -0.3735,0 -0.6665,0.1062 -0.8792,0.3188 -0.2126,0.2124 -0.3188,0.5054 -0.3188,0.8789 v 31.696 l 21.6345,-6.0356 21.634499,6.0356 v -31.696 c 0,-0.3735 -0.1062,-0.6665 -0.3188,-0.8789 z"
     id="path1054" />
  <path
     class="st4"
     d="m 36.246001,106.92865 -0.0625,-0.1523 v -12.168 l 0.0625,-0.1543 0.1533,-0.0625 h 4.3916 c 0.8516,0 1.6025,0.1504 2.25,0.4492 0.6484,0.3008 1.1494,0.7305 1.5029,1.2871 0.3545,0.5586 0.5312,1.209 0.5312,1.9531 v 5.2207 c 0,0.7441 -0.1768,1.3945 -0.5312,1.9531 -0.3535,0.5586 -0.8545,0.9863 -1.5029,1.2871 -0.6475,0.2988 -1.3984,0.4492 -2.25,0.4492 h -4.3916 l -0.1533,-0.0625 z m 2.1152,-1.7363 h 2.5195 c 0.6357,0 1.1436,-0.2012 1.5215,-0.6035 0.3779,-0.4023 0.5723,-0.9395 0.585,-1.6113 v -4.5547 c 0,-0.6836 -0.1924,-1.2266 -0.5762,-1.6289 -0.3838,-0.4004 -0.9004,-0.6016 -1.5479,-0.6016 h -2.502 l -0.0898,0.0898 v 8.8203 l 0.0898,0.0898 z"
     id="path1056" />
  <path
     class="st4"
     d="m 54.939301,102.36615 -0.0186,0.5566 c 0,0.1445 -0.0713,0.2168 -0.2158,0.2168 h -5.6338 l -0.0898,0.0898 c 0.0361,0.3965 0.0898,0.666 0.1621,0.8105 0.2881,0.8633 0.9893,1.3027 2.1055,1.3145 0.8164,0 1.4639,-0.3359 1.9443,-1.0098 l 0.1797,-0.1074 0.126,0.0547 1.1162,0.918 c 0.1084,0.084 0.126,0.1797 0.0537,0.2871 -0.3721,0.5293 -0.8672,0.9375 -1.4844,1.2246 -0.6182,0.2871 -1.3057,0.4316 -2.0615,0.4316 -0.9355,0 -1.7314,-0.209 -2.3848,-0.6289 -0.6543,-0.4199 -1.1309,-1.0078 -1.4307,-1.7656 -0.2764,-0.6465 -0.4141,-1.5469 -0.4141,-2.6992 0,-0.6953 0.0713,-1.2598 0.2158,-1.6914 0.2393,-0.8398 0.6924,-1.5039 1.3584,-1.9902 0.666,-0.4844 1.4678,-0.7285 2.4033,-0.7285 2.3643,0 3.6963,1.2363 3.9961,3.709 0.0479,0.2988 0.0723,0.6348 0.0723,1.0078 z m -5.1748,-2.5839 c -0.2949,0.2227 -0.502,0.5312 -0.6211,0.9277 -0.0723,0.2031 -0.1201,0.4668 -0.1445,0.791 l 0.0723,0.0898 h 3.6543 l 0.0898,-0.0898 c -0.0244,-0.2988 -0.0605,-0.5273 -0.1084,-0.6836 -0.1074,-0.4316 -0.3213,-0.7676 -0.6387,-1.0078 -0.3184,-0.2402 -0.7178,-0.3594 -1.1973,-0.3594 -0.4443,0 -0.8135,0.1113 -1.1064,0.332 z"
     id="path1058" />
  <path
     class="st4"
     d="m 62.345601,97.85645 0.1523,-0.0625 h 1.6387 l 0.1523,0.0625 0.0635,0.1523 v 8.7676 l -0.0635,0.1523 -0.1523,0.0625 h -1.6387 l -0.1523,-0.0625 -0.0635,-0.1523 v -0.5762 l -0.0361,-0.0723 -0.0713,0.0352 c -0.4922,0.6367 -1.2305,0.9551 -2.2139,0.9551 -0.9121,0 -1.6777,-0.2637 -2.2959,-0.793 -0.6182,-0.5273 -0.9268,-1.2773 -0.9268,-2.25 v -6.0664 l 0.0635,-0.1523 0.1523,-0.0625 h 1.6562 l 0.1533,0.0625 0.0625,0.1523 v 5.4727 c 0,0.5645 0.1475,1.0137 0.4414,1.3496 0.2939,0.3359 0.7051,0.5039 1.2324,0.5039 0.54,0 0.9727,-0.168 1.2969,-0.5039 0.3232,-0.3359 0.4854,-0.7852 0.4854,-1.3496 v -5.4727 l 0.0635,-0.1523 z"
     id="path1060" />
  <path
     class="st4"
     d="m 71.399301,99.42285 -0.1523,0.0625 h -1.8359 l -0.0908,0.0898 v 4.3379 c 0,0.457 0.0996,0.7871 0.2979,0.9902 0.1973,0.2051 0.5127,0.3066 0.9443,0.3066 h 0.54 l 0.1533,0.0625 0.0625,0.1523 v 1.3516 c 0,0.1309 -0.0713,0.209 -0.2158,0.2324 l -0.9355,0.0195 c -0.9482,0 -1.6562,-0.1621 -2.124,-0.4863 -0.4678,-0.3242 -0.708,-0.9355 -0.7207,-1.8359 v -5.1309 l -0.0898,-0.0898 h -1.0254 l -0.1533,-0.0625 -0.0625,-0.1523 v -1.2617 l 0.0625,-0.1523 0.1533,-0.0625 h 1.0254 l 0.0898,-0.0898 v -2.1055 l 0.0635,-0.1543 0.1533,-0.0625 h 1.5654 l 0.1533,0.0625 0.0625,0.1543 v 2.1055 l 0.0908,0.0898 h 1.8359 l 0.1523,0.0625 0.0635,0.1523 v 1.2617 l -0.0635,0.1523 z"
     id="path1062" />
  <path
     class="st4"
     d="m 74.746901,106.76655 c -0.5703,-0.2227 -1.0107,-0.5273 -1.3232,-0.918 -0.3115,-0.3906 -0.4678,-0.8242 -0.4678,-1.3047 v -0.1621 l 0.0635,-0.1523 0.1523,-0.0645 h 1.584 l 0.1533,0.0645 0.0635,0.1523 v 0.0352 c 0,0.3008 0.1641,0.5625 0.4941,0.7832 0.3301,0.2227 0.7471,0.334 1.251,0.334 0.4805,0 0.8701,-0.0996 1.1709,-0.2969 0.2998,-0.1992 0.4492,-0.4473 0.4492,-0.748 0,-0.2754 -0.123,-0.4824 -0.3691,-0.6211 -0.2461,-0.1367 -0.6445,-0.2852 -1.1963,-0.4414 l -0.6846,-0.2148 c -0.6113,-0.1797 -1.1279,-0.3711 -1.5479,-0.5762 -0.4199,-0.2031 -0.7734,-0.4824 -1.0615,-0.8379 -0.2881,-0.3535 -0.4326,-0.8066 -0.4326,-1.3574 0,-0.8398 0.3301,-1.5098 0.9902,-2.0078 0.6601,-0.498 1.5303,-0.7461 2.6104,-0.7461 0.7314,0 1.374,0.1152 1.9258,0.3496 0.5518,0.2344 0.9775,0.5586 1.2783,0.9727 0.2998,0.4141 0.4492,0.8848 0.4492,1.4121 l -0.0625,0.1543 -0.1533,0.0625 h -1.5303 l -0.1523,-0.0625 -0.0635,-0.1543 c 0,-0.3105 -0.1523,-0.5723 -0.459,-0.7812 -0.3057,-0.2109 -0.7227,-0.3164 -1.251,-0.3164 -0.4678,0 -0.8486,0.0879 -1.1426,0.2617 -0.294,0.1738 -0.4414,0.416 -0.4414,0.7285 0,0.2891 0.1416,0.5078 0.4229,0.6562 0.2822,0.1504 0.7529,0.3164 1.4131,0.4961 l 0.3965,0.1074 c 0.6357,0.1934 1.1699,0.3867 1.6016,0.5859 0.4326,0.1973 0.7979,0.4746 1.0986,0.8281 0.2998,0.3535 0.4492,0.8125 0.4492,1.377 0,0.8516 -0.3359,1.5195 -1.0078,2.0059 -0.6719,0.4864 -1.5654,0.7305 -2.6816,0.7305 -0.7559,0 -1.4189,-0.1113 -1.9893,-0.334 z"
     id="path1064" />
  <path
     class="st4"
     d="m 83.629801,106.42475 c -0.6719,-0.4746 -1.1396,-1.1133 -1.4033,-1.918 -0.1924,-0.5391 -0.2881,-1.2598 -0.2881,-2.1582 0,-0.8652 0.0957,-1.5723 0.2881,-2.125 0.252,-0.791 0.7168,-1.418 1.3945,-1.8809 0.6777,-0.4609 1.478,-0.6934 2.4038,-0.6934 0.9355,0 1.752,0.2344 2.4473,0.7031 0.6953,0.4668 1.1582,1.0547 1.3867,1.7637 0.0586,0.1914 0.1016,0.3828 0.125,0.5762 v 0.0352 c 0,0.1211 -0.0664,0.1914 -0.1973,0.2168 l -1.6211,0.2324 h -0.0352 c -0.1074,0 -0.1797,-0.0586 -0.2168,-0.1797 l -0.0176,-0.1426 c -0.0234,-0.0977 -0.0488,-0.1816 -0.0723,-0.252 -0.1074,-0.3359 -0.3242,-0.6133 -0.6484,-0.8281 -0.3223,-0.2168 -0.707,-0.3242 -1.1504,-0.3242 -0.457,0 -0.8438,0.1172 -1.1616,0.3496 -0.3184,0.2344 -0.5312,0.5566 -0.6387,0.9648 -0.1201,0.3828 -0.1807,0.918 -0.1807,1.6016 0,0.6602 0.0547,1.1934 0.1621,1.6016 0.1201,0.4199 0.3359,0.7539 0.6484,0.998 0.311,0.2461 0.7017,0.3691 1.1704,0.3691 0.4551,0 0.8477,-0.1172 1.1777,-0.3496 0.3301,-0.2344 0.543,-0.5488 0.6387,-0.9453 l 0.0195,-0.0898 0.0176,-0.0547 c 0.0352,-0.1445 0.1191,-0.2031 0.252,-0.1797 l 1.6191,0.252 0.1543,0.0801 0.0449,0.1719 c -0.0371,0.1914 -0.0664,0.3301 -0.0898,0.4141 -0.2285,0.7676 -0.6914,1.377 -1.3867,1.8262 -0.6953,0.4512 -1.5117,0.6758 -2.4473,0.6758 -0.9258,0 -1.7231,-0.2363 -2.395,-0.7109 z"
     id="path1066" />
  <path
     class="st4"
     d="m 98.4896,98.51465 c 0.5801,0.5742 0.873,1.3613 0.873,2.3574 v 5.9043 l -0.0645,0.1523 -0.1523,0.0625 h -1.6562 l -0.1523,-0.0625 -0.0645,-0.1523 v -5.4727 c 0,-0.5527 -0.1543,-0.998 -0.4668,-1.3418 -0.3125,-0.3418 -0.7266,-0.5117 -1.242199,-0.5117 -0.5156,0 -0.9336,0.168 -1.252,0.5039 -0.3164,0.3359 -0.4766,0.7793 -0.4766,1.332 v 5.4902 l -0.0625,0.1523 -0.1523,0.0625 h -1.6562 l -0.1543,-0.0625 -0.0625,-0.1523 v -12.168 l 0.0625,-0.1543 0.1543,-0.0625 h 1.6562 l 0.1523,0.0625 0.0625,0.1543 v 3.9766 l 0.0371,0.0723 0.0527,-0.0352 c 0.4922,-0.6484 1.2363,-0.9727 2.232399,-0.9727 0.9727,0 1.748,0.2891 2.332,0.8652 z"
     id="path1068" />
  <polygon
     class="st4"
     points="123.0223,117.4093 122.9598,117.257 122.9598,105.089 123.0223,104.9347 123.1746,104.8722 124.8309,104.8722 124.9832,104.9347 125.0477,105.089 125.0477,117.257 124.9832,117.4093 124.8309,117.4718 123.1746,117.4718 "
     id="polygon1070"
     transform="translate(-21.419399,-10.48065)" />
  <path
     class="st4"
     d="m 111.349,98.04585 c 0.5762,0.2637 1.0195,0.627 1.332,1.0879 0.3125,0.4629 0.4688,0.9883 0.4688,1.5762 v 6.0664 l -0.0625,0.1523 -0.1543,0.0625 h -1.6562 l -0.1523,-0.0625 -0.0625,-0.1523 v -0.5762 l -0.0371,-0.0645 -0.0723,0.0273 c -0.5879,0.6484 -1.4395,0.9727 -2.5547,0.9727 -0.9004,0 -1.6406,-0.2285 -2.2227,-0.6836 -0.582,-0.457 -0.873,-1.1348 -0.873,-2.0352 0,-0.9355 0.3262,-1.6641 0.9805,-2.1855 0.6543,-0.5234 1.5742,-0.7832 2.7637,-0.7832 h 1.9258 l 0.0898,-0.0898 v -0.4336 c 0,-0.4668 -0.1387,-0.8301 -0.4141,-1.0879 -0.2773,-0.2578 -0.6914,-0.3867 -1.2422,-0.3867 -0.457,0 -0.8262,0.0801 -1.1074,0.2422 -0.2812,0.1621 -0.459,0.3867 -0.5312,0.6758 -0.0352,0.1426 -0.1191,0.2031 -0.252,0.1797 l -1.7461,-0.2168 -0.1523,-0.0625 -0.0449,-0.1172 c 0.0957,-0.7324 0.4883,-1.332 1.1797,-1.7988 0.6895,-0.4688 1.5566,-0.7031 2.5996,-0.7031 0.7559,0 1.4219,0.1328 1.998,0.3965 z m -0.918,6.9649 c 0.4199,-0.3105 0.6309,-0.707 0.6309,-1.1875 v -0.8457 l -0.0898,-0.0898 h -1.5117 c -0.6367,0 -1.1387,0.1191 -1.5039,0.3594 -0.3652,0.2403 -0.5488,0.582 -0.5488,1.0273 0,0.3828 0.1406,0.6797 0.4238,0.8906 0.2812,0.209 0.6445,0.3145 1.0879,0.3145 0.5879,0 1.0918,-0.1562 1.5117,-0.4688 z"
     id="path1072" />
  <path
     class="st4"
     d="m 121.9799,98.51465 c 0.5801,0.5742 0.873,1.3613 0.873,2.3574 v 5.9043 l -0.0645,0.1523 -0.1523,0.0625 h -1.6562 l -0.1523,-0.0625 -0.0645,-0.1523 v -5.4727 c 0,-0.5527 -0.1543,-0.998 -0.4668,-1.3418 -0.3125,-0.3418 -0.7266,-0.5117 -1.2422,-0.5117 -0.5156,0 -0.9336,0.168 -1.252,0.5039 -0.3164,0.3359 -0.4766,0.7793 -0.4766,1.332 v 5.4902 l -0.0625,0.1523 -0.1523,0.0625 h -1.6562 l -0.1543,-0.0625 -0.0625,-0.1523 v -8.7676 l 0.0625,-0.1523 0.1543,-0.0625 h 1.6562 l 0.1523,0.0625 0.0625,0.1523 v 0.5762 l 0.0371,0.0723 0.0527,-0.0352 c 0.4922,-0.6484 1.2363,-0.9727 2.2324,-0.9727 0.9727,0 1.748,0.2891 2.332,0.8652 z"
     id="path1074" />
  <path
     class="st4"
     d="m 130.7259,94.45405 0.1543,-0.0625 h 1.6562 l 0.1523,0.0625 0.0625,0.1543 v 12.168 l -0.0625,0.1523 -0.1523,0.0625 h -1.6562 l -0.1543,-0.0625 -0.0625,-0.1523 v -0.541 l -0.0352,-0.0723 -0.0723,0.0371 c -0.5293,0.623 -1.2188,0.9355 -2.0703,0.9355 -0.8515,0 -1.5723,-0.2227 -2.1602,-0.666 -0.5879,-0.4433 -1.0137,-1.0625 -1.2773,-1.8535 -0.2168,-0.6719 -0.3242,-1.4219 -0.3242,-2.25 0,-0.8516 0.1016,-1.584 0.3066,-2.1973 0.2637,-0.791 0.6895,-1.4082 1.2773,-1.8535 0.5879,-0.4434 1.3262,-0.666 2.2129,-0.666 0.8281,0 1.5059,0.3008 2.0352,0.9004 l 0.0723,0.0273 0.0352,-0.0625 v -3.9062 z m -0.08,7.9297 c 0,-0.9355 -0.1504,-1.6504 -0.4512,-2.1426 -0.3223,-0.5273 -0.7793,-0.791 -1.3672,-0.791 -0.6113,0 -1.0918,0.252 -1.4395,0.7559 -0.3613,0.5273 -0.541,1.2598 -0.541,2.1953 0,0.8398 0.1445,1.5312 0.4336,2.0703 0.334,0.5762 0.8457,0.8633 1.5293,0.8633 0.6113,0 1.0859,-0.2871 1.4219,-0.8633 0.2754,-0.4922 0.4141,-1.1875 0.4141,-2.0879 z"
     id="path1076" />
</svg>
