<?xml version="1.0" encoding="UTF-8" standalone="no"?>
<svg
   id="Layer_1"
   version="1.1"
   viewBox="0 0 176.7738 134.3804"
   width="176.7738"
   height="134.3804"
   xmlns="http://www.w3.org/2000/svg"
   xmlns:svg="http://www.w3.org/2000/svg">
  <!-- Generator: Adobe Illustrator 30.2.1, SVG Export Plug-In . SVG Version: 2.1.1 Build 1)  -->
  <defs
     id="defs4">
    <style
       id="style2">
      .st0 {
        stroke: #3e0655;
        stroke-width: 1.4173px;
      }

      .st0, .st1 {
        fill: none;
        stroke-miterlimit: 10;
      }

      .st2 {
        fill: #7e6b89;
      }

      .st3 {
        fill: #fff;
      }

      .st4 {
        fill: #472c56;
      }

      .st1 {
        stroke: #472c56;
      }
    </style>
  </defs>
  <line
     class="st0"
     x1="0"
     y1="0.70864999"
     x2="176.7738"
     y2="0.70864999"
     id="line8" />
  <line
     class="st0"
     x1="0"
     y1="133.67175"
     x2="176.7738"
     y2="133.67175"
     id="line10" />
  <path
     class="st4"
     d="m 122.0306,57.28245 -3.1543,-7.2842 -0.1719,-0.1152 h -1.2051 c -0.0957,0 -0.1426,0.0479 -0.1426,0.1436 v 7.1406 c 0,0.1348 -0.0391,0.2402 -0.1152,0.3164 -0.0761,0.0762 -0.1816,0.1143 -0.3145,0.1143 h -4.5312 c -0.1348,0 -0.2402,-0.0381 -0.3164,-0.1143 -0.0762,-0.0762 -0.1152,-0.1816 -0.1152,-0.3164 v -19.2148 c 0,-0.1338 0.0391,-0.2383 0.1152,-0.3154 0.0762,-0.0762 0.1816,-0.1143 0.3164,-0.1143 h 8.6895 c 1.2988,0 2.4414,0.2676 3.4277,0.8027 0.9844,0.5352 1.748,1.2861 2.293,2.251 0.5449,0.9658 0.8184,2.0791 0.8184,3.3418 0,1.2617 -0.3105,2.3652 -0.9316,3.3125 -0.623,0.9463 -1.4785,1.6396 -2.5684,2.0791 -0.0957,0.0381 -0.123,0.1055 -0.0859,0.2002 l 3.6426,7.5713 c 0.0391,0.1152 0.0586,0.1826 0.0586,0.2012 0,0.0957 -0.0391,0.1719 -0.1152,0.2295 -0.0761,0.0576 -0.1719,0.0859 -0.2871,0.0859 h -4.8184 c -0.248,0 -0.4121,-0.1045 -0.4883,-0.3154 z m -4.6738,-14.9991 v 3.3555 c 0,0.0957 0.0469,0.1426 0.1426,0.1426 h 2.6973 c 0.6113,0 1.1074,-0.167 1.4902,-0.501 0.3828,-0.335 0.5742,-0.7695 0.5742,-1.3057 0,-0.5537 -0.1914,-0.999 -0.5742,-1.333 -0.3828,-0.335 -0.8789,-0.502 -1.4902,-0.502 h -2.6973 c -0.0957,0 -0.1426,0.0479 -0.1426,0.1436 z"
     id="path12" />
  <path
     class="st4"
     d="m 137.4603,57.48355 c -0.0762,-0.0762 -0.1152,-0.1816 -0.1152,-0.3164 v -19.2148 c 0,-0.1338 0.0391,-0.2383 0.1152,-0.3154 0.0762,-0.0762 0.1816,-0.1143 0.3164,-0.1143 h 4.5312 c 0.1328,0 0.2383,0.0381 0.3145,0.1143 0.0762,0.0771 0.1152,0.1816 0.1152,0.3154 v 19.2148 c 0,0.1348 -0.0391,0.2402 -0.1152,0.3164 -0.0761,0.0762 -0.1816,0.1143 -0.3145,0.1143 h -4.5312 c -0.1348,0 -0.2402,-0.0381 -0.3164,-0.1143 z"
     id="path14" />
  <path
     class="st4"
     d="m 48.462801,42.02455 c -0.0762,0.0771 -0.1816,0.1152 -0.3154,0.1152 h -8.5752 c -0.0957,0 -0.1436,0.0479 -0.1436,0.1436 v 2.6953 c 0,0.0957 0.0479,0.1436 0.1436,0.1436 h 5.3057 c 0.1338,0 0.2393,0.0381 0.3154,0.1143 0.0762,0.0771 0.1152,0.1826 0.1152,0.3164 v 3.7275 c 0,0.1348 -0.0391,0.2393 -0.1152,0.3154 -0.0762,0.0771 -0.1816,0.1152 -0.3154,0.1152 h -5.3057 c -0.0957,0 -0.1436,0.0479 -0.1436,0.1436 v 2.9824 c 0,0.0957 0.0479,0.1436 0.1436,0.1436 h 8.5752 c 0.1338,0 0.2393,0.0381 0.3154,0.1143 0.0762,0.0771 0.1152,0.1826 0.1152,0.3154 v 3.7568 c 0,0.1348 -0.0391,0.2402 -0.1152,0.3164 -0.0761,0.0762 -0.1816,0.1143 -0.3154,0.1143 h -13.6797 c -0.1338,0 -0.2393,-0.0381 -0.3154,-0.1143 -0.0771,-0.0762 -0.1152,-0.1816 -0.1152,-0.3164 v -19.2148 c 0,-0.1338 0.0381,-0.2383 0.1152,-0.3154 0.0762,-0.0762 0.1816,-0.1143 0.3154,-0.1143 h 13.6797 c 0.1338,0 0.2393,0.0381 0.3154,0.1143 0.0762,0.0771 0.1152,0.1816 0.1152,0.3154 v 3.7568 c 0,0.1338 -0.0391,0.2393 -0.1152,0.3154 z"
     id="path16" />
  <path
     class="st2"
     d="m 80.472901,47.46235 21.634499,6.0357 v 22.6609 c 0,0.372 -0.1063,0.665 -0.3188,0.879 -0.2126,0.2112 -0.507,0.3188 -0.8776,0.3188 H 88.296201 c -0.372,0 -0.665,-0.1077 -0.8776,-0.3188 -0.214,-0.214 -0.3188,-0.507 -0.3188,-0.879 v -19.5591 c 0,-0.2672 -0.1336,-0.3993 -0.3993,-0.3993 h -12.4539 c -0.2671,0 -0.3993,0.1321 -0.3993,0.3993 v 19.5591 c 0,0.372 -0.1077,0.665 -0.3203,0.879 -0.2126,0.2112 -0.5056,0.3188 -0.8776,0.3188 h -12.6133 c -0.3734,0 -0.6664,-0.1077 -0.879,-0.3188 -0.2126,-0.214 -0.3188,-0.507 -0.3188,-0.879 v -22.6609 l 21.6345,-6.0357 z"
     id="path18" />
  <path
     class="st1"
     d="m 80.472901,47.46235 21.634499,6.0357 v 22.6609 c 0,0.372 -0.1063,0.665 -0.3188,0.879 -0.2126,0.2112 -0.507,0.3188 -0.8776,0.3188 H 88.296201 c -0.372,0 -0.665,-0.1077 -0.8776,-0.3188 -0.214,-0.214 -0.3188,-0.507 -0.3188,-0.879 v -19.5591 c 0,-0.2672 -0.1336,-0.3993 -0.3993,-0.3993 h -12.4539 c -0.2671,0 -0.3993,0.1321 -0.3993,0.3993 v 19.5591 c 0,0.372 -0.1077,0.665 -0.3203,0.879 -0.2126,0.2112 -0.5056,0.3188 -0.8776,0.3188 h -12.6133 c -0.3734,0 -0.6664,-0.1077 -0.879,-0.3188 -0.2126,-0.214 -0.3188,-0.507 -0.3188,-0.879 v -22.6609 l 21.6345,-6.0357 z"
     id="path20" />
  <path
     class="st4"
     d="m 101.7886,20.92295 c -0.2126,-0.2126 -0.5071,-0.3188 -0.8774,-0.3188 H 88.296501 c -0.3721,0 -0.665,0.1062 -0.8777,0.3188 -0.2139,0.2124 -0.3188,0.5054 -0.3188,0.8789 v 20.2773 c 0,0.2656 -0.1335,0.3992 -0.3992,0.3992 h -12.4539 c -0.2673,0 -0.3994,-0.1335 -0.3994,-0.3992 v -20.2773 c 0,-0.3735 -0.1077,-0.6665 -0.3203,-0.8789 -0.2124,-0.2126 -0.5054,-0.3188 -0.8774,-0.3188 h -12.6133 c -0.3735,0 -0.6665,0.1062 -0.8792,0.3188 -0.2126,0.2124 -0.3188,0.5054 -0.3188,0.8789 v 31.696 l 21.6345,-6.0356 21.634499,6.0356 v -31.696 c 0,-0.3735 -0.1062,-0.6665 -0.3188,-0.8789 z"
     id="path22" />
  <path
     class="st1"
     d="m 101.7886,20.92295 c -0.2126,-0.2126 -0.5071,-0.3188 -0.8774,-0.3188 H 88.296501 c -0.3721,0 -0.665,0.1062 -0.8777,0.3188 -0.2139,0.2124 -0.3188,0.5054 -0.3188,0.8789 v 20.2773 c 0,0.2656 -0.1335,0.3992 -0.3992,0.3992 h -12.4539 c -0.2673,0 -0.3994,-0.1335 -0.3994,-0.3992 v -20.2773 c 0,-0.3735 -0.1077,-0.6665 -0.3203,-0.8789 -0.2124,-0.2126 -0.5054,-0.3188 -0.8774,-0.3188 h -12.6133 c -0.3735,0 -0.6665,0.1062 -0.8792,0.3188 -0.2126,0.2124 -0.3188,0.5054 -0.3188,0.8789 v 31.696 l 21.6345,-6.0356 21.634499,6.0356 v -31.696 c 0,-0.3735 -0.1062,-0.6665 -0.3188,-0.8789 z"
     id="path24" />
  <path
     class="st4"
     d="m 48.482301,106.60465 c -0.6846,-0.3545 -1.2129,-0.8555 -1.584,-1.5029 -0.3721,-0.6484 -0.5586,-1.3926 -0.5586,-2.2324 v -4.3555 c 0,-0.8525 0.1865,-1.5996 0.5586,-2.2412 0.3711,-0.6416 0.8994,-1.1406 1.584,-1.4941 0.6836,-0.3535 1.4756,-0.5312 2.376,-0.5312 0.8877,0 1.6709,0.1738 2.3486,0.5225 0.6777,0.3477 1.2031,0.8213 1.5752,1.4219 0.3721,0.5996 0.5576,1.2773 0.5576,2.0342 v 0.1436 l -0.0625,0.1533 -0.1533,0.0625 h -1.6377 l -0.1533,-0.0625 -0.0625,-0.1533 v -0.0898 c 0,-0.6484 -0.2197,-1.1816 -0.6572,-1.6025 -0.4385,-0.4199 -1.0234,-0.6299 -1.7549,-0.6299 -0.7324,0 -1.3203,0.2197 -1.7646,0.6572 -0.4434,0.4385 -0.666,1.0176 -0.666,1.7373 v 4.5 c 0,0.7197 0.2344,1.2988 0.7021,1.7363 0.4678,0.4385 1.0742,0.6572 1.8184,0.6572 0.7197,0 1.2871,-0.1885 1.7012,-0.5664 0.4141,-0.3779 0.6211,-0.8975 0.6211,-1.5576 v -1.1162 l -0.0908,-0.0898 h -2.2139 l -0.1523,-0.0625 -0.0635,-0.1533 v -1.332 l 0.0635,-0.1523 0.1523,-0.0635 h 4.1582 l 0.1533,0.0635 0.0625,0.1523 v 2.3037 c 0,1.3809 -0.4053,2.4551 -1.2148,3.2227 -0.8095,0.7676 -1.8994,1.1514 -3.2666,1.1514 -0.9004,0 -1.6924,-0.1768 -2.376,-0.5303 z"
     id="path26" />
  <path
     class="st4"
     d="m 65.293801,102.36545 -0.0186,0.5576 c 0,0.1445 -0.0713,0.2168 -0.2158,0.2168 h -5.6338 l -0.0898,0.0898 c 0.0361,0.3955 0.0898,0.666 0.1621,0.8096 0.2881,0.8643 0.9893,1.3027 2.1055,1.3145 0.8164,0 1.4639,-0.3359 1.9443,-1.0088 l 0.1797,-0.1074 0.126,0.0537 1.1162,0.918 c 0.1084,0.084 0.126,0.1807 0.0537,0.2881 -0.3721,0.5283 -0.8672,0.9365 -1.4844,1.2246 -0.6182,0.2871 -1.3057,0.4316 -2.0615,0.4316 -0.9355,0 -1.7314,-0.21 -2.3848,-0.6299 -0.6543,-0.4199 -1.1309,-1.0078 -1.4307,-1.7646 -0.2764,-0.6475 -0.4141,-1.5479 -0.4141,-2.6992 0,-0.6963 0.0713,-1.2607 0.2158,-1.6924 0.2393,-0.8398 0.6924,-1.5029 1.3584,-1.9893 0.666,-0.4854 1.4678,-0.7285 2.4033,-0.7285 2.3643,0 3.6963,1.2363 3.9961,3.708 0.0479,0.2998 0.0723,0.6357 0.0723,1.0078 z m -5.1748,-2.583 c -0.2949,0.2227 -0.502,0.5312 -0.6211,0.9268 -0.0723,0.2041 -0.1201,0.4678 -0.1445,0.792 l 0.0723,0.0898 h 3.6543 l 0.0898,-0.0898 c -0.0244,-0.2998 -0.0605,-0.5273 -0.1084,-0.6836 -0.1074,-0.4326 -0.3213,-0.7676 -0.6387,-1.0078 -0.3184,-0.2402 -0.7178,-0.3604 -1.1973,-0.3604 -0.4443,0 -0.8135,0.1113 -1.1064,0.333 z"
     id="path28" />
  <path
     class="st4"
     d="m 72.494001,97.91915 c 0.0957,0.0488 0.1318,0.1387 0.1074,0.2705 l -0.3057,1.6201 c -0.0117,0.1436 -0.0957,0.1855 -0.252,0.126 -0.1797,-0.0605 -0.3896,-0.0908 -0.6299,-0.0908 -0.1562,0 -0.2764,0.007 -0.3604,0.0186 -0.5039,0.0244 -0.9238,0.2012 -1.2598,0.5312 -0.336,0.33 -0.5039,0.7588 -0.5039,1.2871 v 5.0938 l -0.0635,0.1523 -0.1523,0.0635 h -1.6562 l -0.1533,-0.0635 -0.0625,-0.1523 v -8.7666 l 0.0625,-0.1523 0.1533,-0.0635 h 1.6562 l 0.1523,0.0635 0.0635,0.1523 v 0.8105 l 0.0273,0.0811 0.0625,-0.0449 c 0.5039,-0.7803 1.2061,-1.1699 2.1064,-1.1699 0.3838,0 0.7197,0.0781 1.0078,0.2334 z"
     id="path30" />
  <path
     class="st4"
     d="m 85.983801,98.48655 c 0.5234,0.5576 0.7832,1.335 0.7832,2.3311 v 5.958 l -0.0625,0.1523 -0.1523,0.0635 h -1.6387 l -0.1523,-0.0635 -0.0645,-0.1523 v -5.5264 c 0,-0.5518 -0.1465,-0.9902 -0.4395,-1.3135 -0.2949,-0.3242 -0.6875,-0.4863 -1.1797,-0.4863 -0.4922,0 -0.8945,0.1621 -1.207,0.4863 -0.3105,0.3232 -0.4668,0.7559 -0.4668,1.2959 v 5.5439 l -0.0625,0.1523 -0.1543,0.0635 h -1.6372 l -0.1533,-0.0635 -0.0625,-0.1523 v -5.5264 c 0,-0.5518 -0.1504,-0.9902 -0.4502,-1.3135 -0.3008,-0.3242 -0.6963,-0.4863 -1.1885,-0.4863 -0.4561,0 -0.8311,0.1318 -1.125,0.3955 -0.2939,0.2646 -0.4648,0.625 -0.5127,1.0801 v 5.8506 l -0.0635,0.1523 -0.1523,0.0635 h -1.6562 l -0.1533,-0.0635 -0.0625,-0.1523 v -8.7666 l 0.0625,-0.1523 0.1533,-0.0635 h 1.6562 l 0.1523,0.0635 0.0635,0.1523 v 0.5947 l 0.0361,0.0713 0.0713,-0.0352 c 0.2646,-0.3359 0.5918,-0.585 0.9814,-0.7471 0.3896,-0.1621 0.8252,-0.2432 1.3047,-0.2432 0.5879,0 1.1045,0.1201 1.5488,0.3594 0.4434,0.2402 0.7852,0.5889 1.0249,1.0439 h 0.127 c 0.2637,-0.4795 0.6289,-0.833 1.0977,-1.0615 0.4688,-0.2275 0.9902,-0.3418 1.5664,-0.3418 0.9238,0 1.6465,0.2783 2.168,0.8369 z"
     id="path32" />
  <path
     class="st4"
     d="m 94.3998,98.04515 c 0.5762,0.2646 1.0195,0.6279 1.332,1.0889 0.3105,0.4629 0.4668,0.9873 0.4668,1.5752 v 6.0664 l -0.0625,0.1523 -0.1523,0.0635 h -1.6562 l -0.1523,-0.0635 -0.0645,-0.1523 v -0.5762 l -0.0352,-0.0635 -0.0723,0.0273 c -0.5879,0.6484 -1.4395,0.9717 -2.556599,0.9717 -0.8984,0 -1.6406,-0.2275 -2.2227,-0.6836 -0.5821,-0.4561 -0.873,-1.1338 -0.873,-2.0342 0,-0.9355 0.3262,-1.665 0.9805,-2.1865 0.6543,-0.5225 1.5762,-0.7832 2.763699,-0.7832 h 1.9258 l 0.0898,-0.0898 v -0.4326 c 0,-0.4678 -0.1367,-0.8301 -0.4141,-1.0889 -0.2754,-0.2578 -0.6895,-0.3867 -1.2422,-0.3867 -0.455099,0 -0.824199,0.0811 -1.105499,0.2432 -0.2832,0.1621 -0.459,0.3867 -0.5312,0.6748 -0.0371,0.1436 -0.1211,0.2041 -0.252,0.1797 l -1.7461,-0.2158 -0.1543,-0.0625 -0.0449,-0.1172 c 0.0977,-0.7324 0.4902,-1.332 1.1797,-1.7998 0.6895,-0.4688 1.5566,-0.7021 2.601599,-0.7021 0.7559,0 1.4219,0.1318 1.998,0.3955 z m -0.918,6.9658 c 0.4199,-0.3115 0.6289,-0.707 0.6289,-1.1875 v -0.8457 l -0.0898,-0.0898 h -1.5117 c -0.636699,0 -1.136699,0.1191 -1.501999,0.3594 -0.3672,0.2402 -0.5508,0.582 -0.5508,1.0264 0,0.3838 0.1426,0.6807 0.4238,0.8906 0.2812,0.2099 0.6445,0.3154 1.0898,0.3154 0.587899,0 1.091799,-0.1562 1.511699,-0.4688 z"
     id="path34" />
  <path
     class="st4"
     d="m 105.0287,98.51385 c 0.5801,0.5752 0.873,1.3613 0.873,2.3574 v 5.9043 l -0.0645,0.1523 -0.1523,0.0635 h -1.6562 l -0.1523,-0.0635 -0.0645,-0.1523 v -5.4727 c 0,-0.5518 -0.1543,-0.998 -0.4668,-1.3408 -0.3125,-0.3418 -0.7266,-0.5127 -1.2422,-0.5127 -0.5156,0 -0.9336,0.168 -1.252,0.5039 -0.3164,0.3359 -0.4766,0.7803 -0.4766,1.332 v 5.4902 l -0.0625,0.1523 -0.1523,0.0635 h -1.6562 l -0.1543,-0.0635 -0.0625,-0.1523 v -8.7666 l 0.0625,-0.1523 0.1543,-0.0635 h 1.6562 l 0.1523,0.0635 0.0625,0.1523 v 0.5762 l 0.0371,0.0723 0.0527,-0.0361 c 0.4922,-0.6475 1.2363,-0.9717 2.2324,-0.9717 0.9727,0 1.748,0.2881 2.332,0.8643 z"
     id="path36" />
  <path
     class="st4"
     d="m 107.4857,110.50995 -0.0371,-0.1523 v -1.2959 l 0.0645,-0.1533 0.1523,-0.0635 h 0.0176 c 0.4922,-0.0117 0.877,-0.0625 1.1523,-0.1523 0.2753,-0.0898 0.5039,-0.2607 0.6836,-0.5127 0.1797,-0.2529 0.3418,-0.6309 0.4863,-1.1348 v -0.1074 l -2.9688,-8.9102 -0.0195,-0.0898 c 0,-0.1084 0.0605,-0.1621 0.1797,-0.1621 h 1.7656 c 0.1309,0 0.2148,0.0596 0.252,0.1797 l 1.7988,6.3359 0.0547,0.0537 0.0547,-0.0537 1.7988,-6.3359 c 0.0371,-0.1201 0.1191,-0.1797 0.252,-0.1797 h 1.7109 l 0.1523,0.0625 0.01,0.1895 -3.168,9.4678 c -0.3008,0.8516 -0.5957,1.4883 -0.8828,1.9082 -0.2871,0.4199 -0.6816,0.7197 -1.1797,0.8994 -0.498,0.1807 -1.2031,0.2705 -2.1152,0.2705 h -0.125 l -0.0898,-0.0635 z"
     id="path38" />
</svg>
